<?xml version="1.0" encoding="UTF-8" standalone="no"?>
<!DOCTYPE svg PUBLIC "-//W3C//DTD SVG 1.1//EN" "http://www.w3.org/Graphics/SVG/1.1/DTD/svg11.dtd">
<svg version="1.1" xmlns="http://www.w3.org/2000/svg" xmlns:xlink="http://www.w3.org/1999/xlink" preserveAspectRatio="xMidYMid meet" viewBox="0 0 640 640" width="480" height="480"><defs><path d="M637.32 320C637.32 494.71 495.13 636.56 320 636.56C144.87 636.56 2.68 494.71 2.68 320C2.68 145.29 144.87 3.44 320 3.44C495.13 3.44 637.32 145.29 637.32 320Z" id="ayFO0ioA4"></path><path d="M122.13 242.29L248.65 144.21L249.1 144.78L122.58 242.86L122.13 242.29Z" id="ctowl94xw"></path><path d="M130.64 419.9L271.61 246.08L272.17 246.53L131.21 420.35L130.64 419.9Z" id="c1IMv2S9EB"></path><path d="M159.62 407.51L255.46 383.43L255.29 382.73L159.44 406.81L159.62 407.51Z" id="f1KhVG8trE"></path><path d="M142.85 409.76L262.8 138.62L262.13 138.32L142.18 409.47L142.85 409.76Z" id="a5pEFEzSE"></path><path d="M136.33 220.45L265.91 391.15L266.49 390.71L136.91 220.01L136.33 220.45Z" id="g8jDnbrLnc"></path><path d="M260.84 382.73L379.17 318.53L378.82 317.89L260.5 382.09L260.84 382.73Z" id="aTmECyRhN"></path><path d="M256.42 258.12L386.66 327.39L386.32 328.03L256.08 258.77L256.42 258.12Z" id="bNYq1rVmz"></path><path d="M265.58 497.72L376.82 437.18L377.16 437.82L265.92 498.36L265.58 497.72Z" id="c5ZvyH1Nqe"></path><path d="M257.8 139.93L375.73 441.41L376.41 441.15L258.48 139.66L257.8 139.93Z" id="i1HgWNQjag"></path><path d="M260.84 378.9L391.08 448.16L390.74 448.8L260.5 379.54L260.84 378.9Z" id="aJfnXHwHf"></path><path d="M371.75 445.32L500.16 316.44L500.68 316.95L372.26 445.83L371.75 445.32Z" id="cZDPPUh7K"></path><path d="M258.4 385.85L378.17 196.87L378.78 197.26L259.02 386.24L258.4 385.85Z" id="b1q2P7DFE8"></path><path d="M260.5 139.65L375.79 320.26L376.41 319.87L261.11 139.26L260.5 139.65Z" id="b1ibkCsgl8"></path><path d="M259.08 504.69L377.84 196.83L377.16 196.56L258.4 504.42L259.08 504.69Z" id="cbjJ6Tj6N"></path><path d="M258.4 266.1L365.32 198.26L365.71 198.87L258.79 266.72L258.4 266.1Z" id="dgdSo3qHR"></path><path d="M257.97 503.16L372.34 321.97L372.96 322.36L258.58 503.55L257.97 503.16Z" id="h3wRfwNA2r"></path><path d="M368.91 320.26L516.51 320.62L516.51 321.35L368.91 320.99L368.91 320.26Z" id="a4swjvFAv"></path><path d="M265.99 143.39L391.38 216.27L391.74 215.64L266.36 142.76L265.99 143.39Z" id="b1i8L4vQry"></path><path d="M131.07 214.94L261.95 511.06L262.62 510.77L131.74 214.65L131.07 214.94Z" id="b1HwXE38LF"></path><path d="M261.12 258.09L378.71 448.42L378.09 448.8L260.5 258.47L261.12 258.09Z" id="a1pFOiLrK"></path><path d="M138.81 408.09L263.56 503.83L264.01 503.25L139.25 407.51L138.81 408.09Z" id="aYxhJcWow"></path><path d="M373.48 194.2L496.3 318.53L496.82 318.02L373.99 193.69L373.48 194.2Z" id="c3zN3G6cD4"></path><path d="M132.2 229.76L275.53 266.89L275.35 267.6L132.02 230.47L132.2 229.76Z" id="cW9xaKHyi"></path><path d="M171.56 229.65C171.56 245.35 158.78 258.09 143.05 258.09C127.31 258.09 114.53 245.35 114.53 229.65C114.53 213.95 127.31 201.2 143.05 201.2C158.78 201.2 171.56 213.95 171.56 229.65Z" id="aJCvbv4J8"></path><path d="M171.56 405.75C171.56 421.45 158.78 434.2 143.05 434.2C127.31 434.2 114.53 421.45 114.53 405.75C114.53 390.05 127.31 377.31 143.05 377.31C158.78 377.31 171.56 390.05 171.56 405.75Z" id="fd1cnnTnP"></path><path d="M233.71 260.93C233.71 276.63 246.49 289.37 262.23 289.37C277.96 289.37 290.74 276.63 290.74 260.93C290.74 245.23 277.96 232.49 262.23 232.49C246.49 232.49 233.71 245.23 233.71 260.93Z" id="b1mZogpLie"></path><path d="M290.74 139.66C290.74 155.36 277.96 168.1 262.23 168.1C246.49 168.1 233.71 155.36 233.71 139.66C233.71 123.96 246.49 111.22 262.23 111.22C277.96 111.22 290.74 123.96 290.74 139.66Z" id="f3gMTgLSit"></path><path d="M290.74 500.34C290.74 516.04 277.96 528.78 262.23 528.78C246.49 528.78 233.71 516.04 233.71 500.34C233.71 484.64 246.49 471.9 262.23 471.9C277.96 471.9 290.74 484.64 290.74 500.34Z" id="ac5TtkGLh"></path><path d="M290.74 379.07C290.74 394.77 277.96 407.51 262.23 407.51C246.49 407.51 233.71 394.77 233.71 379.07C233.71 363.37 246.49 350.63 262.23 350.63C277.96 350.63 290.74 363.37 290.74 379.07Z" id="a10yh6I8m"></path><path d="M404.92 199.31C404.92 215.01 392.15 227.75 376.41 227.75C360.67 227.75 347.9 215.01 347.9 199.31C347.9 183.61 360.67 170.87 376.41 170.87C392.15 170.87 404.92 183.61 404.92 199.31Z" id="ag2JZiFoJ"></path><path d="M404.92 439.32C404.92 455.02 392.15 467.77 376.41 467.77C360.67 467.77 347.9 455.02 347.9 439.32C347.9 423.62 360.67 410.88 376.41 410.88C392.15 410.88 404.92 423.62 404.92 439.32Z" id="caSILZyrR"></path><path d="M404.92 320C404.92 335.7 392.15 348.44 376.41 348.44C360.67 348.44 347.9 335.7 347.9 320C347.9 304.3 360.67 291.56 376.41 291.56C392.15 291.56 404.92 304.3 404.92 320Z" id="bhpxhc3Dm"></path><path d="M525.47 320C525.47 335.7 512.69 348.44 496.95 348.44C481.22 348.44 468.44 335.7 468.44 320C468.44 304.3 481.22 291.56 496.95 291.56C512.69 291.56 525.47 304.3 525.47 320Z" id="e1PPG1orWg"></path><linearGradient id="gradientg7cicTAv2" gradientUnits="userSpaceOnUse" x1="513.93" y1="297.48" x2="481.26" y2="334.9"><stop style="stop-color: #db5461;stop-opacity: 1" offset="0%"></stop><stop style="stop-color: #62bbc1;stop-opacity: 1" offset="100%"></stop></linearGradient><path d="M137.6 222.37L125.42 224.23L134.23 233.24L132.15 245.96L143.05 239.95L153.94 245.96L151.86 233.24L160.67 224.23L148.49 222.37L143.05 210.8L137.6 222.37Z" id="a15UB3t2yy"></path><path d="M128.41 420.35L128.41 391.15L157.68 391.15L157.68 420.35L128.41 420.35ZM132.07 416.7L137.56 411.23L141.22 413.05L146.7 405.75L154.02 415.49L154.02 394.8L132.07 394.8L132.07 416.7ZM138.73 398.92L138.86 398.93L138.99 398.95L139.12 398.97L139.24 399L139.36 399.03L139.48 399.07L139.6 399.11L139.72 399.16L139.83 399.21L139.94 399.26L140.05 399.32L140.16 399.39L140.26 399.45L140.36 399.52L140.46 399.6L140.55 399.68L140.65 399.76L140.74 399.84L140.82 399.93L140.9 400.02L140.98 400.12L141.06 400.21L141.13 400.32L141.19 400.42L141.26 400.52L141.32 400.63L141.37 400.74L141.42 400.86L141.47 400.97L141.51 401.09L141.55 401.21L141.58 401.33L141.61 401.46L141.63 401.58L141.65 401.71L141.66 401.84L141.67 401.97L141.67 402.1L141.67 402.23L141.66 402.36L141.65 402.49L141.63 402.62L141.61 402.75L141.58 402.87L141.55 402.99L141.51 403.11L141.47 403.23L141.42 403.34L141.37 403.46L141.32 403.57L141.26 403.68L141.19 403.78L141.13 403.89L141.06 403.99L140.98 404.09L140.9 404.18L140.82 404.27L140.74 404.36L140.65 404.45L140.55 404.53L140.46 404.6L140.36 404.68L140.26 404.75L140.16 404.82L140.05 404.88L139.94 404.94L139.83 404.99L139.72 405.04L139.6 405.09L139.48 405.13L139.36 405.17L139.24 405.2L139.12 405.23L138.99 405.25L138.86 405.27L138.73 405.28L138.6 405.29L138.47 405.3L138.34 405.29L138.21 405.28L138.08 405.27L137.95 405.25L137.83 405.23L137.7 405.2L137.58 405.17L137.46 405.13L137.34 405.09L137.22 405.04L137.11 404.99L137 404.94L136.89 404.88L136.78 404.82L136.68 404.75L136.58 404.68L136.48 404.6L136.39 404.53L136.3 404.45L136.21 404.36L136.12 404.27L136.04 404.18L135.96 404.09L135.89 403.99L135.82 403.89L135.75 403.78L135.69 403.68L135.63 403.57L135.57 403.46L135.52 403.34L135.47 403.23L135.43 403.11L135.4 402.99L135.36 402.87L135.33 402.75L135.31 402.62L135.29 402.49L135.28 402.36L135.27 402.23L135.27 402.1L135.27 401.97L135.28 401.84L135.29 401.71L135.31 401.58L135.33 401.46L135.36 401.33L135.4 401.21L135.43 401.09L135.47 400.97L135.52 400.86L135.57 400.74L135.63 400.63L135.69 400.52L135.75 400.42L135.82 400.32L135.89 400.21L135.96 400.12L136.04 400.02L136.12 399.93L136.21 399.84L136.3 399.76L136.39 399.68L136.48 399.6L136.58 399.52L136.68 399.45L136.78 399.39L136.89 399.32L137 399.26L137.11 399.21L137.22 399.16L137.34 399.11L137.46 399.07L137.58 399.03L137.7 399L137.83 398.97L137.95 398.95L138.08 398.93L138.21 398.92L138.34 398.91L138.47 398.91L138.6 398.91L138.73 398.92Z" id="a3r2T7CJGV"></path></defs><g><g><g><use xlink:href="#ayFO0ioA4" opacity="1" fill="#212121" fill-opacity="1"></use></g><g><g><use xlink:href="#ctowl94xw" opacity="1" fill="#ffffff" fill-opacity="1"></use><g><use xlink:href="#ctowl94xw" opacity="1" fill-opacity="0" stroke="#119959" stroke-width="0" stroke-opacity="1"></use></g></g><g><use xlink:href="#c1IMv2S9EB" opacity="1" fill="#ffffff" fill-opacity="1"></use><g><use xlink:href="#c1IMv2S9EB" opacity="1" fill-opacity="0" stroke="#119959" stroke-width="0" stroke-opacity="1"></use></g></g><g><use xlink:href="#f1KhVG8trE" opacity="1" fill="#ffffff" fill-opacity="1"></use><g><use xlink:href="#f1KhVG8trE" opacity="1" fill-opacity="0" stroke="#119959" stroke-width="0" stroke-opacity="1"></use></g></g><g><use xlink:href="#a5pEFEzSE" opacity="1" fill="#ffffff" fill-opacity="1"></use><g><use xlink:href="#a5pEFEzSE" opacity="1" fill-opacity="0" stroke="#119959" stroke-width="0" stroke-opacity="1"></use></g></g><g><use xlink:href="#g8jDnbrLnc" opacity="1" fill="#ffffff" fill-opacity="1"></use><g><use xlink:href="#g8jDnbrLnc" opacity="1" fill-opacity="0" stroke="#119959" stroke-width="0" stroke-opacity="1"></use></g></g><g><use xlink:href="#aTmECyRhN" opacity="1" fill="#ffffff" fill-opacity="1"></use><g><use xlink:href="#aTmECyRhN" opacity="1" fill-opacity="0" stroke="#119959" stroke-width="0" stroke-opacity="1"></use></g></g><g><use xlink:href="#bNYq1rVmz" opacity="1" fill="#ffffff" fill-opacity="1"></use><g><use xlink:href="#bNYq1rVmz" opacity="1" fill-opacity="0" stroke="#119959" stroke-width="0" stroke-opacity="1"></use></g></g><g><use xlink:href="#c5ZvyH1Nqe" opacity="1" fill="#ffffff" fill-opacity="1"></use><g><use xlink:href="#c5ZvyH1Nqe" opacity="1" fill-opacity="0" stroke="#119959" stroke-width="0" stroke-opacity="1"></use></g></g><g><use xlink:href="#i1HgWNQjag" opacity="1" fill="#ffffff" fill-opacity="1"></use><g><use xlink:href="#i1HgWNQjag" opacity="1" fill-opacity="0" stroke="#119959" stroke-width="0" stroke-opacity="1"></use></g></g><g><use xlink:href="#aJfnXHwHf" opacity="1" fill="#ffffff" fill-opacity="1"></use><g><use xlink:href="#aJfnXHwHf" opacity="1" fill-opacity="0" stroke="#119959" stroke-width="0" stroke-opacity="1"></use></g></g><g><use xlink:href="#cZDPPUh7K" opacity="1" fill="#ffffff" fill-opacity="1"></use><g><use xlink:href="#cZDPPUh7K" opacity="1" fill-opacity="0" stroke="#119959" stroke-width="0" stroke-opacity="1"></use></g></g><g><use xlink:href="#b1q2P7DFE8" opacity="1" fill="#ffffff" fill-opacity="1"></use><g><use xlink:href="#b1q2P7DFE8" opacity="1" fill-opacity="0" stroke="#119959" stroke-width="0" stroke-opacity="1"></use></g></g><g><use xlink:href="#b1ibkCsgl8" opacity="1" fill="#ffffff" fill-opacity="1"></use><g><use xlink:href="#b1ibkCsgl8" opacity="1" fill-opacity="0" stroke="#119959" stroke-width="0" stroke-opacity="1"></use></g></g><g><use xlink:href="#cbjJ6Tj6N" opacity="1" fill="#ffffff" fill-opacity="1"></use><g><use xlink:href="#cbjJ6Tj6N" opacity="1" fill-opacity="0" stroke="#119959" stroke-width="0" stroke-opacity="1"></use></g></g><g><use xlink:href="#dgdSo3qHR" opacity="1" fill="#ffffff" fill-opacity="1"></use><g><use xlink:href="#dgdSo3qHR" opacity="1" fill-opacity="0" stroke="#119959" stroke-width="0" stroke-opacity="1"></use></g></g><g><use xlink:href="#h3wRfwNA2r" opacity="1" fill="#ffffff" fill-opacity="1"></use><g><use xlink:href="#h3wRfwNA2r" opacity="1" fill-opacity="0" stroke="#119959" stroke-width="0" stroke-opacity="1"></use></g></g><g><use xlink:href="#a4swjvFAv" opacity="1" fill="#ffffff" fill-opacity="1"></use><g><use xlink:href="#a4swjvFAv" opacity="1" fill-opacity="0" stroke="#119959" stroke-width="0" stroke-opacity="1"></use></g></g><g><use xlink:href="#b1i8L4vQry" opacity="1" fill="#ffffff" fill-opacity="1"></use><g><use xlink:href="#b1i8L4vQry" opacity="1" fill-opacity="0" stroke="#119959" stroke-width="0" stroke-opacity="1"></use></g></g><g><use xlink:href="#b1HwXE38LF" opacity="1" fill="#ffffff" fill-opacity="1"></use><g><use xlink:href="#b1HwXE38LF" opacity="1" fill-opacity="0" stroke="#119959" stroke-width="0" stroke-opacity="1"></use></g></g><g><use xlink:href="#a1pFOiLrK" opacity="1" fill="#ffffff" fill-opacity="1"></use><g><use xlink:href="#a1pFOiLrK" opacity="1" fill-opacity="0" stroke="#119959" stroke-width="0" stroke-opacity="1"></use></g></g><g><use xlink:href="#aYxhJcWow" opacity="1" fill="#ffffff" fill-opacity="1"></use><g><use xlink:href="#aYxhJcWow" opacity="1" fill-opacity="0" stroke="#119959" stroke-width="0" stroke-opacity="1"></use></g></g><g><use xlink:href="#c3zN3G6cD4" opacity="1" fill="#ffffff" fill-opacity="1"></use><g><use xlink:href="#c3zN3G6cD4" opacity="1" fill-opacity="0" stroke="#119959" stroke-width="0" stroke-opacity="1"></use></g></g><g><use xlink:href="#cW9xaKHyi" opacity="1" fill="#ffffff" fill-opacity="1"></use><g><use xlink:href="#cW9xaKHyi" opacity="1" fill-opacity="0" stroke="#119959" stroke-width="0" stroke-opacity="1"></use></g></g><g><use xlink:href="#aJCvbv4J8" opacity="1" fill="#62bbc1" fill-opacity="1"></use></g><g><use xlink:href="#fd1cnnTnP" opacity="1" fill="#db5461" fill-opacity="1"></use></g><g><use xlink:href="#b1mZogpLie" opacity="1" fill="#efcb68" fill-opacity="1"></use></g><g><use xlink:href="#f3gMTgLSit" opacity="1" fill="#efcb68" fill-opacity="1"></use></g><g><use xlink:href="#ac5TtkGLh" opacity="1" fill="#efcb68" fill-opacity="1"></use></g><g><use xlink:href="#a10yh6I8m" opacity="1" fill="#efcb68" fill-opacity="1"></use></g><g><use xlink:href="#ag2JZiFoJ" opacity="1" fill="#fffbfc" fill-opacity="1"></use></g><g><use xlink:href="#caSILZyrR" opacity="1" fill="#fffbfc" fill-opacity="1"></use></g><g><use xlink:href="#bhpxhc3Dm" opacity="1" fill="#fffbfc" fill-opacity="1"></use></g><g><use xlink:href="#e1PPG1orWg" opacity="1" fill="url(#gradientg7cicTAv2)"></use></g><g><use xlink:href="#a15UB3t2yy" opacity="1" fill="#fffbfc" fill-opacity="1"></use></g><g><use xlink:href="#a3r2T7CJGV" opacity="1" fill="#fffbfc" fill-opacity="1"></use></g></g></g></g></svg>